<svg xmlns="http://www.w3.org/2000/svg" viewBox="0 0 24 24" id="safari"><circle cx="12" cy="12" r="12" fill="#EEE"></circle><radialGradient id="a" cx="3.946" cy="916.391" r=".006" gradientTransform="matrix(2240.2344 0 0 -2240.2344 -8827.055 2052939.25)" gradientUnits="userSpaceOnUse"><stop offset="0" stop-color="#2abce1"></stop><stop offset=".114" stop-color="#2abbe1"></stop><stop offset="1" stop-color="#3375f8"></stop></radialGradient><circle cx="12" cy="12" r="11.1" fill="url(#a)"></circle><path fill="#F3F3F3" d="M12.019 3.6c-.075 0-.141-.056-.141-.131v-1.96c0-.075.066-.131.141-.131s.14.056.14.131v1.959c-.009.076-.065.132-.14.132z"></path><path fill="#FFF" d="M12.019 3.609c-.084 0-.15-.066-.15-.141V1.509c0-.075.066-.141.15-.141s.15.066.15.141v1.959c0 .076-.075.141-.15.141zm0-2.222c-.066 0-.131.057-.131.122v1.959c0 .066.056.122.131.122.066 0 .131-.056.131-.122V1.509c-.009-.065-.066-.122-.131-.122z"></path><path fill="#F3F3F3" d="M12.956 2.55c-.075-.009-.131-.066-.131-.141l.066-.872a.137.137 0 0 1 .15-.122c.075.009.131.066.131.141l-.066.872a.137.137 0 0 1-.15.122z"></path><path fill="#FFF" d="M12.956 2.559a.152.152 0 0 1-.14-.15l.066-.872c.009-.075.075-.141.159-.131a.153.153 0 0 1 .141.15l-.066.872c-.01.085-.075.141-.16.131zm.085-1.134c-.066 0-.131.047-.131.113l-.066.871c0 .066.047.122.122.131.066 0 .131-.047.131-.112l.066-.872c0-.065-.057-.122-.122-.131z"></path><path fill="#F3F3F3" d="M13.659 3.769a.145.145 0 0 1-.112-.16l.384-1.922c.019-.075.084-.122.159-.103a.144.144 0 0 1 .113.16l-.384 1.922c-.01.065-.085.112-.16.103z"></path><path fill="#FFF" d="M13.659 3.778a.152.152 0 0 1-.121-.169l.384-1.922a.15.15 0 0 1 .178-.112.154.154 0 0 1 .122.169l-.384 1.922c-.019.075-.094.122-.179.112zm.441-2.184a.135.135 0 0 0-.15.094l-.384 1.921a.132.132 0 0 0 .103.15.135.135 0 0 0 .15-.094l.384-1.922c.01-.074-.037-.13-.103-.149z"></path><path fill="#F3F3F3" d="M14.784 2.925a.14.14 0 0 1-.103-.169l.234-.844c.019-.074.094-.112.169-.093a.141.141 0 0 1 .104.169l-.235.843c-.019.075-.094.113-.169.094z"></path><path fill="#FFF" d="M14.784 2.934c-.075-.018-.131-.103-.103-.178l.234-.844c.019-.074.104-.121.179-.103.075.019.131.103.103.178l-.234.844c-.019.075-.094.122-.179.103zm.31-1.096c-.066-.019-.141.018-.16.084l-.234.844c-.019.066.019.131.094.15.066.019.141-.019.159-.084l.235-.845a.134.134 0 0 0-.094-.149z"></path><path fill="#F3F3F3" d="M15.244 4.247a.134.134 0 0 1-.075-.178l.75-1.809c.028-.066.113-.103.178-.066a.134.134 0 0 1 .075.178l-.75 1.809c-.028.066-.113.103-.178.066z"></path><path fill="#FFF" d="M15.244 4.256a.145.145 0 0 1-.085-.187l.75-1.809c.029-.076.113-.104.197-.076a.145.145 0 0 1 .084.188l-.75 1.809c-.037.075-.121.113-.196.075zm.853-2.053a.127.127 0 0 0-.169.066l-.75 1.809c-.028.066.01.131.075.16.066.028.141 0 .169-.066l.75-1.809a.133.133 0 0 0-.075-.16z"></path><path fill="#F3F3F3" d="M16.509 3.647c-.065-.038-.093-.113-.065-.178l.394-.778a.136.136 0 0 1 .188-.056c.066.038.094.113.066.178l-.395.778a.139.139 0 0 1-.188.056z"></path><path fill="#FFF" d="M16.509 3.656a.143.143 0 0 1-.065-.197l.394-.778a.144.144 0 0 1 .197-.066.145.145 0 0 1 .065.198l-.394.778a.143.143 0 0 1-.197.065zm.516-1.022c-.066-.028-.141-.009-.169.057l-.393.778c-.028.056 0 .131.056.169.065.028.14.009.169-.057l.394-.778c.027-.056-.001-.131-.057-.169z"></path><path fill="#F3F3F3" d="M16.697 5.034c-.066-.046-.084-.131-.038-.187l1.088-1.622c.037-.066.122-.075.187-.037.066.046.085.131.038.187l-1.088 1.622c-.037.066-.121.084-.187.037z"></path><path fill="#FFF" d="M16.697 5.044a.162.162 0 0 1-.047-.206l1.088-1.622c.047-.066.131-.084.206-.037.065.046.084.14.047.205l-1.088 1.622a.15.15 0 0 1-.206.038zm1.237-1.847c-.056-.038-.14-.028-.178.028l-1.087 1.622c-.038.056-.019.131.037.169.056.038.141.028.178-.028l1.088-1.613a.133.133 0 0 0-.038-.178z"></path><path fill="#F3F3F3" d="M18.066 4.688c-.057-.047-.075-.132-.028-.188l.544-.684a.132.132 0 0 1 .187-.019c.056.047.075.131.028.187l-.544.685a.134.134 0 0 1-.187.019z"></path><path fill="#FFF" d="M18.056 4.697c-.065-.047-.075-.141-.028-.206l.544-.684a.138.138 0 0 1 .206-.019c.066.047.075.141.028.206l-.543.684c-.047.066-.141.075-.207.019zm.703-.891c-.056-.047-.131-.037-.178.019l-.543.684a.131.131 0 0 0 .028.178c.056.047.131.038.178-.018l.544-.685c.037-.056.028-.14-.029-.178z"></path><path fill="#F3F3F3" d="M17.972 6.094c-.056-.056-.056-.141 0-.188l1.387-1.378a.134.134 0 0 1 .188 0c.047.047.056.141 0 .187l-1.378 1.379a.137.137 0 0 1-.197 0z"></path><path fill="#FFF" d="M17.963 6.103a.147.147 0 0 1 0-.206l1.387-1.378a.147.147 0 0 1 .206 0 .147.147 0 0 1 0 .206l-1.387 1.378a.147.147 0 0 1-.206 0zm1.584-1.575a.13.13 0 0 0-.178 0l-1.388 1.378a.13.13 0 0 0 0 .178.13.13 0 0 0 .178 0l1.388-1.378c.047-.047.047-.122 0-.178z"></path><path fill="#F3F3F3" d="M19.378 6.019c-.047-.056-.047-.141.01-.188l.666-.562a.134.134 0 0 1 .188.019c.046.056.046.14-.011.187l-.665.563a.135.135 0 0 1-.188-.019z"></path><path fill="#FFF" d="M19.369 6.028c-.056-.065-.047-.159.009-.206l.666-.563c.056-.056.15-.047.206.019.056.066.047.159-.009.206l-.666.563c-.056.056-.15.047-.206-.019zm.862-.74c-.047-.056-.122-.056-.178-.019l-.665.562c-.047.047-.057.122-.01.178s.122.056.178.019l.666-.563c.056-.046.056-.121.009-.177z"></path><path fill="#F3F3F3" d="M19.003 7.369a.127.127 0 0 1 .038-.188l1.631-1.087c.066-.038.15-.019.187.038a.126.126 0 0 1-.037.187l-1.631 1.087c-.057.038-.141.019-.188-.037z"></path><path fill="#FFF" d="M18.994 7.369a.15.15 0 0 1 .037-.206l1.631-1.088c.066-.047.159-.028.206.047a.15.15 0 0 1-.037.206L19.2 7.416c-.066.047-.159.028-.206-.047zm1.856-1.228a.123.123 0 0 0-.169-.038L19.05 7.191c-.056.037-.075.112-.028.178a.123.123 0 0 0 .169.038l1.631-1.088a.132.132 0 0 0 .028-.178z"></path><path fill="#F3F3F3" d="M20.4 7.566a.136.136 0 0 1 .047-.188l.759-.431c.066-.038.15-.009.187.056a.136.136 0 0 1-.047.188l-.758.431c-.066.037-.15.009-.188-.056z"></path><path fill="#FFF" d="M20.391 7.575c-.038-.075-.019-.159.047-.197l.759-.431c.066-.038.159-.009.197.056.038.075.019.159-.047.197l-.759.431a.15.15 0 0 1-.197-.056zm.993-.562c-.037-.066-.112-.084-.169-.047l-.759.431a.135.135 0 0 0-.047.169c.038.066.113.084.169.047l.759-.431c.057-.029.076-.104.047-.169z"></path><path fill="#F3F3F3" d="M19.772 8.813c-.028-.075 0-.15.075-.178l1.809-.75c.066-.028.15.009.178.075.028.075 0 .15-.075.178l-1.809.75a.135.135 0 0 1-.178-.075z"></path><path fill="#FFF" d="M19.763 8.822a.156.156 0 0 1 .075-.197l1.809-.75a.145.145 0 0 1 .187.084.156.156 0 0 1-.075.197l-1.809.75a.144.144 0 0 1-.187-.084zm2.053-.853a.132.132 0 0 0-.159-.075l-1.809.75c-.066.028-.094.103-.066.169a.132.132 0 0 0 .159.075l1.809-.75a.128.128 0 0 0 .066-.169z"></path><path fill="#F3F3F3" d="M21.094 9.281a.135.135 0 0 1 .084-.178l.825-.272c.066-.028.15.019.169.084a.135.135 0 0 1-.084.178l-.825.272c-.066.029-.141-.009-.169-.084z"></path><path fill="#FFF" d="M21.084 9.291a.142.142 0 0 1 .094-.187l.825-.272c.075-.028.159.019.188.094a.142.142 0 0 1-.094.187l-.825.272a.161.161 0 0 1-.188-.094zm1.088-.357c-.019-.066-.094-.103-.159-.084l-.825.272c-.066.019-.094.094-.075.159.019.066.094.103.159.084l.825-.272a.128.128 0 0 0 .075-.159z"></path><path fill="#F3F3F3" d="M20.25 10.397c-.019-.075.028-.15.103-.159l1.922-.375c.075-.019.141.037.159.112.019.075-.028.15-.103.159l-1.922.375c-.075.01-.15-.037-.159-.112z"></path><path fill="#FFF" d="M20.231 10.397a.15.15 0 0 1 .112-.178l1.922-.375c.075-.019.15.038.169.122a.15.15 0 0 1-.112.178l-1.922.375c-.075.019-.15-.038-.169-.122zm2.185-.422a.126.126 0 0 0-.141-.103l-1.922.375c-.066.009-.112.084-.094.15a.126.126 0 0 0 .141.103l1.922-.375c.066-.019.112-.084.094-.15z"></path><path fill="#F3F3F3" d="M21.45 11.119c-.009-.075.037-.141.112-.15l.862-.103a.137.137 0 0 1 .15.122c.009.075-.037.141-.112.15l-.863.103c-.065.009-.14-.047-.149-.122z"></path><path fill="#FFF" d="M21.441 11.119c-.01-.085.047-.16.122-.169l.862-.103a.146.146 0 0 1 .159.131c.009.084-.047.159-.122.169l-.863.103a.145.145 0 0 1-.158-.131zm1.134-.131c-.009-.066-.075-.122-.141-.113l-.862.103c-.066.009-.113.075-.103.141s.075.122.141.113l.863-.103a.127.127 0 0 0 .102-.141z"></path><path fill="#F3F3F3" d="M20.4 12.028c0-.075.056-.141.131-.141h1.959c.075 0 .131.066.131.141 0 .075-.056.141-.131.141h-1.959c-.075 0-.131-.066-.131-.141z"></path><path fill="#FFF" d="M20.391 12.028c0-.084.066-.15.141-.15h1.959c.075 0 .141.066.141.15s-.066.15-.141.15h-1.959a.146.146 0 0 1-.141-.15zm2.222.01c0-.066-.056-.131-.122-.131h-1.959c-.066 0-.122.056-.122.131 0 .066.056.131.122.131h1.959c.065-.01.122-.066.122-.131z"></path><path fill="#F3F3F3" d="M21.441 12.975c.009-.075.066-.131.141-.131l.872.066a.137.137 0 0 1 .122.15c-.009.075-.066.131-.141.131l-.872-.066c-.066-.009-.122-.075-.122-.15z"></path><path fill="#FFF" d="M21.431 12.975a.153.153 0 0 1 .15-.141l.872.066c.075.009.141.075.131.159a.153.153 0 0 1-.15.141l-.872-.066c-.074-.009-.131-.084-.131-.159zm1.144.084a.119.119 0 0 0-.113-.131l-.872-.066c-.066 0-.122.047-.131.122a.119.119 0 0 0 .113.131l.872.066c.065 0 .122-.056.131-.122z"></path><path fill="#F3F3F3" d="M20.231 13.659a.143.143 0 0 1 .159-.112l1.922.384c.075.019.122.084.103.159s-.084.122-.159.113l-1.922-.384c-.065-.01-.112-.085-.103-.16z"></path><path fill="#FFF" d="M20.222 13.659a.154.154 0 0 1 .169-.122l1.922.384a.15.15 0 0 1 .112.178.154.154 0 0 1-.169.122l-1.922-.384c-.075-.018-.121-.093-.112-.178zm2.184.441a.135.135 0 0 0-.094-.15l-1.922-.384a.133.133 0 0 0-.15.103.135.135 0 0 0 .094.15l1.922.384c.075.01.132-.037.15-.103z"></path><path fill="#F3F3F3" d="M21.075 14.784a.14.14 0 0 1 .169-.103l.844.235c.075.019.112.094.094.169a.141.141 0 0 1-.169.103l-.844-.234c-.075-.02-.113-.095-.094-.17z"></path><path fill="#FFF" d="M21.066 14.784c.019-.075.103-.131.178-.103l.844.235a.15.15 0 0 1 .103.178c-.019.075-.103.131-.178.103l-.844-.234c-.075-.019-.122-.094-.103-.179zm1.097.31c.019-.066-.019-.141-.084-.159l-.844-.234c-.066-.02-.132.018-.151.093-.019.066.019.141.084.159l.844.234a.135.135 0 0 0 .151-.093z"></path><path fill="#F3F3F3" d="M19.753 15.234a.134.134 0 0 1 .178-.075l1.809.75c.066.028.103.113.075.178-.027.076-.112.104-.177.076l-1.809-.75a.135.135 0 0 1-.076-.179z"></path><path fill="#FFF" d="M19.744 15.225a.145.145 0 0 1 .188-.084l1.809.75c.075.028.103.113.075.197a.145.145 0 0 1-.188.084l-1.809-.75a.156.156 0 0 1-.075-.197zm2.053.853a.127.127 0 0 0-.066-.169l-1.809-.75c-.066-.028-.131.009-.159.075a.127.127 0 0 0 .066.169l1.809.75c.065.019.14-.009.159-.075z"></path><path fill="#F3F3F3" d="M20.363 16.5c.038-.066.112-.094.178-.066l.778.394c.066.028.094.112.056.187-.038.066-.113.094-.178.066l-.778-.394a.138.138 0 0 1-.056-.187z"></path><path fill="#FFF" d="M20.353 16.491a.144.144 0 0 1 .197-.066l.778.394a.144.144 0 0 1 .066.197.144.144 0 0 1-.197.066l-.778-.394c-.075-.029-.103-.122-.066-.197zm1.013.515c.028-.066.009-.141-.056-.169l-.778-.394c-.056-.028-.131 0-.169.056-.028.066-.009.141.056.169l.778.394c.066.029.141.01.169-.056z"></path><path fill="#F3F3F3" d="M18.984 16.678c.047-.066.122-.084.188-.038l1.631 1.088c.066.037.075.122.038.187-.047.066-.122.084-.188.038l-1.631-1.087c-.066-.047-.084-.132-.038-.188z"></path><path fill="#FFF" d="M18.975 16.669a.162.162 0 0 1 .206-.047l1.631 1.087c.066.047.084.131.037.206a.162.162 0 0 1-.206.047l-1.63-1.087a.142.142 0 0 1-.038-.206zm1.847 1.237c.037-.056.028-.141-.028-.178l-1.631-1.087a.122.122 0 0 0-.169.037c-.038.056-.028.141.028.178l1.631 1.088a.122.122 0 0 0 .169-.038z"></path><path fill="#F3F3F3" d="M19.331 18.038c.047-.057.132-.075.188-.029l.684.534a.134.134 0 0 1 .019.188c-.047.056-.131.075-.188.028l-.684-.534a.133.133 0 0 1-.019-.187z"></path><path fill="#FFF" d="M19.322 18.028c.047-.065.141-.075.206-.028l.684.534c.066.047.075.141.028.206-.047.066-.141.075-.206.028l-.684-.534c-.066-.046-.075-.14-.028-.206zm.9.703c.047-.056.037-.131-.019-.178l-.684-.534a.132.132 0 0 0-.178.028c-.047.056-.038.131.018.178l.684.534a.134.134 0 0 0 .179-.028z"></path><path fill="#F3F3F3" d="M17.934 17.944c.056-.056.141-.056.188 0l1.387 1.378a.134.134 0 0 1 0 .188c-.056.056-.141.056-.187 0l-1.388-1.379a.144.144 0 0 1 0-.187z"></path><path fill="#FFF" d="M17.934 17.934a.147.147 0 0 1 .206 0l1.387 1.378a.147.147 0 0 1 0 .206.147.147 0 0 1-.206 0l-1.387-1.377a.134.134 0 0 1 0-.207zm1.575 1.566a.13.13 0 0 0 0-.178l-1.387-1.378a.13.13 0 0 0-.178 0 .13.13 0 0 0 0 .178l1.387 1.378c.047.056.122.056.178 0z"></path><path fill="#F3F3F3" d="M18.019 19.341c.056-.047.141-.047.188.009l.572.656a.135.135 0 0 1-.019.188c-.056.047-.141.047-.187-.009l-.572-.656c-.048-.048-.038-.132.018-.188z"></path><path fill="#FFF" d="M18.009 19.341a.147.147 0 0 1 .206.009l.573.656c.056.056.047.15-.019.206a.147.147 0 0 1-.206-.009l-.572-.656c-.047-.066-.047-.159.018-.206zm.75.853c.056-.047.056-.122.019-.178l-.572-.657a.13.13 0 0 0-.178-.009c-.056.047-.056.122-.019.178l.572.656c.047.057.122.057.178.01z"></path><path fill="#F3F3F3" d="M16.669 18.984a.127.127 0 0 1 .188.038l1.087 1.622c.038.066.019.15-.037.188a.127.127 0 0 1-.188-.038l-1.087-1.622c-.038-.066-.02-.15.037-.188z"></path><path fill="#FFF" d="M16.669 18.975a.15.15 0 0 1 .206.038l1.088 1.622c.047.066.028.159-.047.206a.15.15 0 0 1-.206-.037l-1.087-1.622c-.048-.076-.029-.16.046-.207zm1.237 1.847c.056-.038.075-.113.037-.169l-1.087-1.622c-.038-.056-.113-.066-.178-.028a.123.123 0 0 0-.038.169l1.087 1.622c.039.047.123.065.179.028z"></path><path fill="#F3F3F3" d="M16.472 20.372c.066-.037.15-.019.187.047l.431.759a.14.14 0 0 1-.056.187.135.135 0 0 1-.187-.047l-.431-.759c-.028-.065-.01-.15.056-.187z"></path><path fill="#FFF" d="M16.472 20.363c.075-.038.159-.019.197.047l.431.759a.142.142 0 0 1-.056.197c-.075.038-.159.019-.197-.047l-.431-.76c-.038-.065-.019-.15.056-.196zm.562.993c.056-.038.084-.113.047-.169l-.431-.759a.136.136 0 0 0-.169-.047c-.056.038-.084.113-.047.169l.431.759c.029.057.113.085.169.047z"></path><path fill="#F3F3F3" d="M15.225 19.753c.075-.028.15 0 .178.066l.759 1.809c.028.066-.009.15-.075.178-.066.028-.15 0-.178-.066l-.759-1.809c-.028-.065.009-.15.075-.178z"></path><path fill="#FFF" d="M15.225 19.744a.156.156 0 0 1 .197.075l.759 1.809a.145.145 0 0 1-.084.187.156.156 0 0 1-.197-.075l-.759-1.809c-.028-.065.009-.15.084-.187zm.853 2.053c.066-.028.094-.103.066-.159l-.759-1.809c-.028-.066-.103-.094-.169-.066-.066.028-.094.103-.066.159l.759 1.809c.038.066.104.094.169.066z"></path><path fill="#F3F3F3" d="M14.766 21.084a.135.135 0 0 1 .178.084l.272.825c.028.066-.019.15-.084.169a.135.135 0 0 1-.178-.084l-.272-.825c-.029-.065.009-.14.084-.169z"></path><path fill="#FFF" d="M14.756 21.075a.145.145 0 0 1 .187.084l.272.825c.028.075-.019.159-.094.188a.145.145 0 0 1-.187-.084l-.272-.825c-.018-.075.019-.16.094-.188zm.366 1.078c.066-.019.103-.094.084-.159l-.272-.825c-.019-.066-.094-.094-.159-.075-.066.019-.103.094-.084.159l.272.825a.118.118 0 0 0 .147.079l.012-.004z"></path><path fill="#F3F3F3" d="M13.659 20.231c.075-.019.15.028.159.103l.394 1.922c.019.075-.038.141-.113.159-.075.019-.15-.028-.159-.103l-.394-1.922a.152.152 0 0 1 .113-.159z"></path><path fill="#FFF" d="M13.659 20.222a.151.151 0 0 1 .178.113l.394 1.922a.142.142 0 0 1-.113.169.15.15 0 0 1-.178-.112l-.394-1.922c-.018-.076.029-.151.113-.17zm.441 2.184c.066-.009.113-.075.103-.15l-.394-1.922c-.009-.066-.084-.112-.15-.094-.066.009-.112.075-.103.15l.394 1.922a.134.134 0 0 0 .15.094z"></path><path fill="#F3F3F3" d="M12.947 21.45a.144.144 0 0 1 .159.113l.112.862a.137.137 0 0 1-.122.15.143.143 0 0 1-.159-.112l-.112-.863a.137.137 0 0 1 .122-.15z"></path><path fill="#FFF" d="M12.947 21.441c.084-.009.159.047.169.122l.112.862c.009.075-.047.15-.131.159s-.159-.046-.169-.122l-.112-.862a.145.145 0 0 1 .131-.159zm.141 1.125c.066-.009.122-.075.113-.141l-.113-.862c-.009-.066-.075-.113-.141-.103s-.122.075-.113.141l.113.863c.009.064.075.111.141.102z"></path><path fill="#F3F3F3" d="M11.981 20.4c.075 0 .141.056.141.131v1.959c0 .075-.066.131-.141.131-.075 0-.141-.056-.141-.131v-1.959c.01-.075.066-.131.141-.131z"></path><path fill="#FFF" d="M11.981 20.391c.084 0 .15.066.15.141v1.959c0 .075-.066.141-.15.141s-.15-.066-.15-.141v-1.959c0-.076.075-.141.15-.141zm0 2.222c.066 0 .131-.056.131-.122v-1.959c0-.066-.056-.122-.131-.122-.066 0-.131.056-.131.122v1.959c.009.065.066.122.131.122z"></path><path fill="#F3F3F3" d="M11.044 21.45c.075.009.131.066.131.141l-.066.872a.137.137 0 0 1-.15.122c-.075-.01-.131-.066-.131-.141l.066-.872a.137.137 0 0 1 .15-.122z"></path><path fill="#FFF" d="M11.044 21.441a.153.153 0 0 1 .141.15l-.066.872c-.009.075-.075.141-.159.131a.153.153 0 0 1-.141-.15l.066-.872c.009-.084.074-.141.159-.131zm-.085 1.134c.066 0 .131-.047.131-.112l.066-.872c0-.066-.047-.122-.122-.131-.066 0-.131.047-.131.113l-.065.871c0 .065.056.122.121.131z"></path><path fill="#F3F3F3" d="M10.341 20.231a.143.143 0 0 1 .112.159l-.384 1.922c-.019.075-.084.122-.159.103a.143.143 0 0 1-.112-.159l.384-1.922c.009-.065.084-.112.159-.103z"></path><path fill="#FFF" d="M10.341 20.222a.154.154 0 0 1 .122.169l-.385 1.922a.15.15 0 0 1-.178.112.154.154 0 0 1-.122-.169l.384-1.922c.019-.075.094-.122.179-.112zM9.9 22.406a.135.135 0 0 0 .15-.094l.384-1.922a.133.133 0 0 0-.103-.15.135.135 0 0 0-.15.094l-.384 1.922a.135.135 0 0 0 .103.15z"></path><path fill="#F3F3F3" d="M9.216 21.075a.14.14 0 0 1 .103.169l-.234.844c-.019.075-.094.112-.169.094a.14.14 0 0 1-.103-.169l.234-.844c.019-.075.094-.113.169-.094z"></path><path fill="#FFF" d="M9.216 21.066c.075.019.131.103.103.178l-.234.844a.15.15 0 0 1-.178.103c-.075-.019-.131-.103-.103-.178l.234-.844c.018-.075.093-.122.178-.103zm-.31 1.097c.066.019.141-.019.159-.084l.234-.844c.019-.066-.019-.131-.094-.15-.066-.019-.141.019-.159.084l-.234.844a.136.136 0 0 0 .094.15z"></path><path fill="#F3F3F3" d="M8.756 19.753a.134.134 0 0 1 .075.178l-.75 1.809c-.028.066-.113.103-.178.066-.066-.038-.103-.113-.075-.178l.75-1.809c.028-.066.113-.103.178-.066z"></path><path fill="#FFF" d="M8.756 19.744a.145.145 0 0 1 .084.188l-.75 1.809c-.028.075-.113.103-.197.075a.145.145 0 0 1-.084-.187l.75-1.809c.038-.076.122-.114.197-.076zm-.853 2.053c.066.028.141 0 .169-.066l.75-1.809c.028-.066-.009-.131-.075-.159a.127.127 0 0 0-.169.066l-.75 1.809a.133.133 0 0 0 .075.159z"></path><path fill="#F3F3F3" d="M7.491 20.353a.14.14 0 0 1 .066.178l-.394.778a.137.137 0 0 1-.188.056.14.14 0 0 1-.066-.178l.394-.778a.139.139 0 0 1 .188-.056z"></path><path fill="#FFF" d="M7.491 20.344a.144.144 0 0 1 .066.197l-.394.778a.144.144 0 0 1-.197.066.144.144 0 0 1-.066-.197l.394-.778a.142.142 0 0 1 .197-.066zm-.516 1.022c.066.028.141.009.169-.056l.394-.778c.028-.056 0-.131-.056-.169-.066-.028-.141-.009-.169.056l-.394.778c-.028.056 0 .131.056.169z"></path><path fill="#F3F3F3" d="M7.303 18.966c.066.047.084.131.038.187l-1.088 1.622c-.037.066-.122.075-.187.037-.066-.047-.084-.131-.038-.188l1.088-1.622a.127.127 0 0 1 .187-.036z"></path><path fill="#FFF" d="M7.303 18.956a.162.162 0 0 1 .047.206l-1.087 1.622c-.047.066-.131.084-.206.037a.162.162 0 0 1-.047-.206l1.088-1.622a.149.149 0 0 1 .205-.037zm-1.237 1.847c.056.037.141.028.178-.028l1.088-1.622a.122.122 0 0 0-.038-.169c-.056-.037-.141-.028-.178.028l-1.088 1.613a.133.133 0 0 0 .038.178z"></path><path fill="#F3F3F3" d="M5.934 19.313c.056.047.075.131.028.187l-.544.684a.133.133 0 0 1-.187.019c-.056-.047-.075-.131-.028-.188l.544-.684a.133.133 0 0 1 .187-.018z"></path><path fill="#FFF" d="M5.944 19.303c.066.047.075.141.028.206l-.544.684c-.047.066-.14.076-.206.02-.066-.047-.075-.141-.028-.206l.544-.684c.046-.067.14-.076.206-.02zm-.703.891c.056.047.131.038.178-.019l.544-.684a.132.132 0 0 0-.028-.178c-.056-.047-.131-.038-.178.019l-.544.684c-.038.056-.029.14.028.178z"></path><path fill="#F3F3F3" d="M6.028 17.906c.056.056.056.141 0 .187l-1.387 1.378a.134.134 0 0 1-.188 0c-.047-.047-.056-.141 0-.187l1.378-1.378a.137.137 0 0 1 .197 0z"></path><path fill="#FFF" d="M6.038 17.897a.147.147 0 0 1 0 .206L4.65 19.481a.147.147 0 0 1-.206 0 .147.147 0 0 1 0-.206l1.387-1.378a.149.149 0 0 1 .207 0zm-1.585 1.575a.13.13 0 0 0 .178 0l1.388-1.378a.13.13 0 0 0 0-.178.13.13 0 0 0-.178 0l-1.388 1.378c-.047.047-.047.122 0 .178z"></path><path fill="#F3F3F3" d="M4.622 17.981c.047.056.047.141-.009.187l-.666.563a.135.135 0 0 1-.188-.019c-.047-.056-.047-.141.009-.188l.666-.562a.135.135 0 0 1 .188.019z"></path><path fill="#FFF" d="M4.631 17.972c.057.066.047.159-.009.206l-.666.562c-.056.056-.15.047-.206-.019-.056-.066-.047-.159.009-.206l.666-.562c.056-.056.15-.047.206.019zm-.862.741c.047.056.122.056.178.019l.666-.563a.13.13 0 0 0 .009-.178c-.047-.056-.122-.056-.178-.019l-.666.562c-.056.047-.056.122-.009.179z"></path><path fill="#F3F3F3" d="M4.997 16.631a.127.127 0 0 1-.038.188l-1.631 1.087c-.065.038-.15.019-.187-.037a.128.128 0 0 1 .037-.188l1.631-1.087c.057-.038.141-.019.188.037z"></path><path fill="#FFF" d="M5.006 16.631a.15.15 0 0 1-.038.206l-1.63 1.088a.145.145 0 0 1-.207-.047.15.15 0 0 1 .038-.206L4.8 16.584a.145.145 0 0 1 .206.047zM3.15 17.859a.122.122 0 0 0 .169.038l1.631-1.088c.056-.037.075-.112.028-.178a.123.123 0 0 0-.169-.038l-1.631 1.088a.133.133 0 0 0-.028.178z"></path><path fill="#F3F3F3" d="M3.6 16.434a.136.136 0 0 1-.047.188l-.759.431a.14.14 0 0 1-.187-.056.137.137 0 0 1 .046-.188l.759-.431a.14.14 0 0 1 .188.056z"></path><path fill="#FFF" d="M3.609 16.425c.037.075.019.159-.047.197l-.759.431c-.065.038-.159.01-.197-.056-.037-.075-.018-.159.047-.197l.759-.431a.15.15 0 0 1 .197.056zm-.993.563c.038.066.113.084.169.047l.759-.431a.136.136 0 0 0 .047-.169c-.038-.066-.113-.085-.169-.047l-.759.431c-.057.028-.075.103-.047.169z"></path><path fill="#F3F3F3" d="M4.228 15.188c.028.075 0 .15-.075.178l-1.809.75c-.066.028-.15-.009-.178-.075-.028-.075 0-.15.075-.178l1.809-.75c.066-.029.15 0 .178.075z"></path><path fill="#FFF" d="M4.238 15.178a.156.156 0 0 1-.075.197l-1.809.75a.146.146 0 0 1-.188-.084.156.156 0 0 1 .075-.197l1.809-.75a.146.146 0 0 1 .188.084zm-2.054.853a.134.134 0 0 0 .16.075l1.809-.75c.066-.028.094-.103.066-.169a.132.132 0 0 0-.159-.075l-1.809.75a.127.127 0 0 0-.067.169z"></path><path fill="#F3F3F3" d="M2.906 14.719a.135.135 0 0 1-.084.178l-.825.272c-.066.028-.15-.019-.169-.084a.136.136 0 0 1 .085-.179l.825-.272c.065-.028.14.01.168.085z"></path><path fill="#FFF" d="M2.916 14.709a.144.144 0 0 1-.094.188l-.825.272c-.075.028-.159-.019-.188-.094a.142.142 0 0 1 .094-.187l.825-.272c.075-.019.16.018.188.093zm-1.088.357c.019.065.094.103.16.084l.825-.272c.065-.019.093-.094.075-.159s-.094-.103-.16-.085l-.825.272a.13.13 0 0 0-.075.16z"></path><path fill="#F3F3F3" d="M3.75 13.603c.019.075-.028.15-.103.159l-1.922.375c-.075.019-.141-.038-.159-.113-.019-.075.028-.15.103-.159l1.922-.375c.075-.009.15.038.159.113z"></path><path fill="#FFF" d="M3.769 13.603a.15.15 0 0 1-.113.178l-1.922.375c-.075.019-.15-.037-.168-.122a.15.15 0 0 1 .112-.178l1.922-.375c.075-.018.15.038.169.122zm-2.185.422a.126.126 0 0 0 .141.103l1.922-.375c.066-.009.112-.084.094-.15A.125.125 0 0 0 3.6 13.5l-1.922.375c-.065.019-.112.084-.094.15z"></path><path fill="#F3F3F3" d="M2.55 12.881c.009.075-.038.141-.113.15l-.862.103a.137.137 0 0 1-.15-.122c-.009-.075.037-.141.112-.15l.863-.103c.066-.009.141.047.15.122z"></path><path fill="#FFF" d="M2.559 12.881c.009.084-.047.159-.122.169l-.862.103c-.075.009-.15-.047-.159-.131s.047-.159.122-.169l.863-.103a.145.145 0 0 1 .158.131zm-1.134.132c.009.066.075.122.141.112l.862-.103a.125.125 0 0 0 .103-.141c-.009-.065-.075-.122-.14-.112l-.863.103a.126.126 0 0 0-.103.141z"></path><path fill="#F3F3F3" d="M3.6 11.972c0 .075-.056.141-.131.141H1.51c-.075 0-.131-.066-.131-.141 0-.075.056-.141.131-.141h1.959c.075 0 .131.066.131.141z"></path><path fill="#FFF" d="M3.609 11.972c0 .084-.066.15-.141.15H1.509c-.075 0-.141-.066-.141-.15 0-.084.066-.15.141-.15h1.959c.076 0 .141.066.141.15zm-2.221-.009c0 .066.056.131.122.131h1.959c.066 0 .122-.056.122-.131 0-.066-.056-.131-.122-.131H1.51c-.066.009-.122.065-.122.131z"></path><path fill="#E2E2E2" d="M2.559 11.025c-.009.075-.066.131-.141.131l-.872-.066a.137.137 0 0 1-.122-.15c.01-.074.067-.131.142-.131l.872.066c.065.009.121.075.121.15z"></path><path fill="#FFF" d="M2.569 11.025a.153.153 0 0 1-.15.141l-.872-.066c-.075-.009-.141-.075-.131-.159a.153.153 0 0 1 .15-.141l.872.066c.075.009.131.084.131.159zm-1.144-.084a.12.12 0 0 0 .113.131l.872.066c.066 0 .122-.047.131-.122a.119.119 0 0 0-.113-.131l-.872-.066c-.065 0-.122.056-.131.122z"></path><path fill="#F3F3F3" d="M3.769 10.341a.145.145 0 0 1-.159.113l-1.922-.395c-.075-.019-.122-.084-.103-.159s.084-.122.159-.112l1.922.384c.065.019.112.094.103.169z"></path><path fill="#FFF" d="M3.778 10.341a.154.154 0 0 1-.169.122l-1.921-.385a.151.151 0 0 1-.113-.178.154.154 0 0 1 .169-.122l1.922.384c.075.019.122.094.112.179zM1.594 9.9a.134.134 0 0 0 .094.15l1.922.384a.133.133 0 0 0 .15-.103.135.135 0 0 0-.094-.15l-1.922-.384c-.075-.009-.131.037-.15.103z"></path><path fill="#F3F3F3" d="M2.925 9.216a.14.14 0 0 1-.168.103l-.844-.234c-.075-.019-.113-.094-.094-.169a.14.14 0 0 1 .169-.103l.844.234c.074.019.112.094.093.169z"></path><path fill="#FFF" d="M2.934 9.216c-.018.075-.103.131-.178.103l-.844-.234c-.074-.019-.121-.104-.103-.179.019-.075.104-.131.179-.103l.844.234c.074.019.121.094.102.179zm-1.096-.31c-.019.066.019.141.084.159l.844.234c.066.019.131-.019.15-.094.019-.066-.019-.141-.084-.159l-.844-.234a.135.135 0 0 0-.15.094z"></path><path fill="#F3F3F3" d="M4.247 8.766c-.028.075-.113.103-.178.075l-1.809-.75c-.066-.028-.103-.112-.075-.178a.134.134 0 0 1 .178-.075l1.809.75a.134.134 0 0 1 .075.178z"></path><path fill="#FFF" d="M4.256 8.775a.144.144 0 0 1-.187.084l-1.809-.75c-.075-.028-.103-.112-.075-.197a.145.145 0 0 1 .188-.084l1.809.75a.156.156 0 0 1 .074.197zm-2.053-.853a.127.127 0 0 0 .066.169l1.809.75c.066.028.131-.01.16-.075a.127.127 0 0 0-.066-.169l-1.809-.75c-.066-.019-.141.009-.16.075z"></path><path fill="#F3F3F3" d="M3.638 7.5a.14.14 0 0 1-.178.066l-.778-.394c-.066-.028-.094-.113-.057-.188.038-.065.113-.093.178-.065l.778.394a.14.14 0 0 1 .057.187z"></path><path fill="#FFF" d="M3.647 7.509a.144.144 0 0 1-.197.066l-.778-.394a.144.144 0 0 1-.066-.197.143.143 0 0 1 .197-.065l.778.394c.075.028.103.121.066.196zm-1.013-.515c-.028.065-.009.14.057.169l.778.394c.056.028.131 0 .169-.056.028-.066.009-.141-.056-.169l-.788-.394c-.057-.028-.132-.01-.16.056z"></path><path fill="#F3F3F3" d="M5.016 7.322c-.047.066-.122.084-.188.037L3.206 6.281c-.065-.037-.075-.122-.037-.187.038-.066.122-.084.188-.038l1.631 1.088c.056.037.075.122.028.178z"></path><path fill="#FFF" d="M5.025 7.331a.16.16 0 0 1-.206.047L3.197 6.29c-.066-.046-.084-.131-.038-.206a.163.163 0 0 1 .207-.046l1.622 1.087a.142.142 0 0 1 .037.206zM3.178 6.094c-.037.056-.028.141.028.178l1.632 1.087c.056.038.131.019.169-.037.037-.056.028-.141-.028-.178L3.348 6.056a.124.124 0 0 0-.17.038z"></path><path fill="#F3F3F3" d="M4.669 5.963c-.047.056-.131.075-.188.028l-.684-.534a.135.135 0 0 1-.019-.188c.047-.056.131-.075.188-.028l.684.534a.134.134 0 0 1 .019.188z"></path><path fill="#FFF" d="M4.678 5.972c-.047.066-.14.075-.206.028l-.684-.534c-.066-.047-.075-.141-.029-.206.047-.066.141-.075.206-.028l.684.534c.067.047.076.14.029.206zm-.9-.703c-.047.056-.037.131.019.178l.684.534a.132.132 0 0 0 .178-.028c.047-.056.038-.131-.019-.178l-.684-.534a.132.132 0 0 0-.178.028z"></path><path fill="#F3F3F3" d="M6.066 6.056c-.056.056-.141.056-.187 0L4.482 4.678a.134.134 0 0 1 0-.188c.056-.056.141-.056.187 0l1.388 1.378a.134.134 0 0 1 .009.188z"></path><path fill="#FFF" d="M6.066 6.066a.147.147 0 0 1-.206 0L4.472 4.688a.147.147 0 0 1 0-.206.147.147 0 0 1 .206 0L6.066 5.86a.133.133 0 0 1 0 .206zM4.491 4.5a.13.13 0 0 0 0 .178l1.387 1.378a.13.13 0 0 0 .178 0 .13.13 0 0 0 0-.178L4.669 4.491c-.047-.047-.122-.047-.178.009z"></path><path fill="#F3F3F3" d="M5.981 4.659c-.056.047-.141.047-.188-.009l-.572-.656a.133.133 0 0 1 .019-.187c.057-.048.141-.048.188.009L6 4.472c.047.047.038.131-.019.187z"></path><path fill="#FFF" d="M5.991 4.659a.147.147 0 0 1-.206-.009l-.572-.656c-.056-.056-.047-.15.019-.206a.147.147 0 0 1 .206.009l.572.656c.046.066.046.16-.019.206zm-.75-.853c-.056.047-.056.122-.019.178l.572.656a.13.13 0 0 0 .178.009c.056-.046.056-.121.019-.177l-.572-.656c-.047-.057-.122-.057-.178-.01z"></path><path fill="#F3F3F3" d="M7.331 5.016a.127.127 0 0 1-.188-.038L6.046 3.356c-.037-.065-.018-.15.038-.187a.127.127 0 0 1 .188.038l1.087 1.622a.131.131 0 0 1-.028.187z"></path><path fill="#FFF" d="M7.331 5.025a.15.15 0 0 1-.206-.037L6.038 3.366a.145.145 0 0 1 .046-.207.15.15 0 0 1 .206.037l1.088 1.623a.142.142 0 0 1-.047.206zM6.094 3.178a.122.122 0 0 0-.037.169l1.087 1.622c.038.056.113.066.178.028.056-.038.075-.113.037-.169L6.272 3.215a.134.134 0 0 0-.178-.037z"></path><path fill="#F3F3F3" d="M7.528 3.628c-.066.037-.15.019-.187-.047l-.431-.759c-.037-.066-.009-.15.056-.188.066-.037.15-.019.187.047l.431.759c.029.066.01.151-.056.188z"></path><path fill="#FFF" d="M7.528 3.638c-.075.037-.159.019-.197-.047L6.9 2.832c-.037-.066-.019-.159.056-.197.075-.037.159-.019.197.047l.431.759c.038.065.019.15-.056.197zm-.562-.994c-.056.037-.084.112-.047.169l.431.759a.136.136 0 0 0 .169.047c.056-.037.084-.113.047-.169l-.431-.759c-.029-.057-.113-.085-.169-.047z"></path><path fill="#F3F3F3" d="M8.775 4.247c-.075.028-.15 0-.178-.066l-.759-1.809c-.028-.066.009-.15.075-.178.075-.028.15 0 .178.066l.759 1.809c.028.065-.009.15-.075.178z"></path><path fill="#FFF" d="M8.775 4.256a.156.156 0 0 1-.197-.075l-.759-1.809a.146.146 0 0 1 .084-.188.156.156 0 0 1 .197.075l.759 1.809c.029.066-.009.151-.084.188zm-.853-2.053c-.066.028-.094.103-.066.16l.759 1.809c.028.066.103.094.169.066.066-.029.094-.104.066-.16l-.759-1.809c-.038-.066-.104-.094-.169-.066z"></path><path fill="#F3F3F3" d="M9.234 2.916a.135.135 0 0 1-.178-.084l-.272-.825c-.028-.066.019-.15.084-.169.066-.019.15.009.178.084l.272.825c.029.066-.009.141-.084.169z"></path><path fill="#FFF" d="M9.244 2.925a.145.145 0 0 1-.187-.084l-.272-.825c-.029-.075.018-.16.093-.188a.145.145 0 0 1 .187.084l.272.825a.159.159 0 0 1-.093.188zm-.366-1.078c-.066.019-.103.094-.084.159l.272.825c.019.066.094.094.159.075.066-.019.103-.094.084-.159l-.271-.825a.118.118 0 0 0-.16-.075z"></path><path fill="#F3F3F3" d="M10.341 3.769c-.075.019-.15-.028-.159-.103l-.394-1.922c-.019-.075.037-.141.112-.16.075-.019.15.028.159.103l.394 1.922a.15.15 0 0 1-.112.16z"></path><path fill="#FFF" d="M10.341 3.778a.15.15 0 0 1-.178-.112l-.394-1.922c-.019-.075.037-.16.112-.169a.151.151 0 0 1 .178.113l.394 1.921c.019.075-.028.15-.112.169zM9.9 1.594c-.066.009-.112.075-.103.15l.394 1.922c.009.066.084.112.15.094.066-.009.112-.075.103-.15l-.394-1.923a.134.134 0 0 0-.15-.093z"></path><path fill="#F3F3F3" d="M11.053 2.55a.144.144 0 0 1-.159-.112l-.113-.863a.137.137 0 0 1 .122-.15.146.146 0 0 1 .16.113l.112.862a.137.137 0 0 1-.122.15z"></path><path fill="#FFF" d="M11.053 2.559c-.084.01-.159-.046-.169-.122l-.112-.862a.146.146 0 0 1 .131-.159c.085-.01.16.047.169.122l.112.862a.144.144 0 0 1-.131.159zm-.14-1.125c-.066.01-.122.075-.113.141l.113.863a.126.126 0 0 0 .14.103c.066-.009.122-.075.113-.141l-.113-.862a.126.126 0 0 0-.14-.104z"></path><path fill="#CD151E" d="m19.584 4.416-8.85 6.291 2.625 2.606 6.225-8.897z"></path><path fill="#FA5153" d="m10.744 10.688 1.322 1.303 7.519-7.575-8.841 6.272z"></path><path fill="#ACACAC" d="m10.744 10.688 2.625 2.606-8.85 6.291 6.225-8.897z"></path><path fill="#EEE" d="m4.519 19.584 7.547-7.594-1.322-1.303-6.225 8.897z"></path></svg>